<?xml version="1.0" encoding="utf-8"?>
<!-- Generator: Adobe Illustrator 23.1.0, SVG Export Plug-In . SVG Version: 6.00 Build 0)  -->
<svg version="1.1" id="Layer_1" xmlns="http://www.w3.org/2000/svg" xmlns:xlink="http://www.w3.org/1999/xlink" x="0px" y="0px" viewBox="0 0 181 74" style="enable-background:new 0 0 181 74;" xml:space="preserve">
  <style type="text/css">
	.st0{fill:url(#SVGID_1_);}
	.st1{fill:#888888;}
	.st2{fill:#FFFFFF;}
</style>
  <radialGradient id="SVGID_1_" cx="90.5" cy="-979.7" r="65.9073" gradientTransform="matrix(1 0 0 -1 0 -928)" gradientUnits="userSpaceOnUse">
    <stop offset="0" style="stop-color:#848484" />
    <stop offset="1" style="stop-color:#4D4D4D" />
  </radialGradient>
  <rect y="29.4" class="st0" width="181" height="44.6" />
  <g>
    <path class="st1" d="M7.1,4.7c0,1.1-0.7,1.9-2,1.9C4,6.6,3.2,5.8,3.2,4.7s0.8-2,2-2C6.3,2.7,7.1,3.6,7.1,4.7z M3.6,26.7V9.5h3.1
		v17.2H3.6z" />
    <path class="st1" d="M28.9,26.7l-0.2-2.2h-0.1c-1,1.3-2.8,2.6-5.3,2.6c-3.5,0-5.3-2.4-5.3-4.9c0-4.2,3.7-6.4,10.3-6.4v-0.4
		c0-1.4-0.4-4-3.9-4c-1.6,0-3.3,0.5-4.5,1.3l-0.7-2.1c1.4-0.9,3.5-1.5,5.6-1.5c5.3,0,6.5,3.6,6.5,7v6.4c0,1.5,0.1,2.9,0.3,4.1
		L28.9,26.7L28.9,26.7z M28.5,17.9c-3.4-0.1-7.3,0.5-7.3,3.9c0,2,1.3,3,2.9,3c2.2,0,3.7-1.4,4.2-2.9c0.1-0.3,0.2-0.7,0.2-1V17.9z" />
    <path class="st1" d="M36.5,14.2c0-1.8,0-3.2-0.1-4.6h2.7l0.1,2.8h0.1c1-1.6,2.6-3.2,5.4-3.2c2.3,0,4.1,1.4,4.9,3.4h0.1
		c0.5-1,1.2-1.7,1.9-2.2c1-0.8,2.2-1.2,3.8-1.2c2.3,0,5.6,1.5,5.6,7.5v10.1h-3V17c0-3.3-1.2-5.3-3.7-5.3c-1.8,0-3.2,1.3-3.7,2.8
		c-0.1,0.4-0.2,1-0.2,1.6v10.6h-3.1V16.4c0-2.7-1.2-4.7-3.6-4.7c-2,0-3.4,1.6-3.9,3.1c-0.2,0.5-0.2,1-0.2,1.5v10.4h-3.1V14.2z" />
  </g>
  <g>
    <path class="st2" d="M54.1,35.4c2.6-0.4,6.4-0.7,10.6-0.7c5.2,0,8.9,0.8,11.4,2.8c2.1,1.7,3.2,4.1,3.2,7.4c0,4.5-3.2,7.6-6.2,8.7
		v0.2c2.5,1,3.8,3.3,4.7,6.6c1.1,4,2.2,8.6,2.9,9.9h-8.1c-0.6-1-1.4-3.9-2.5-8.2c-0.9-4.4-2.5-5.6-5.7-5.6H62v13.8h-7.9V35.4z
		 M62,50.5h3.1c4,0,6.3-2,6.3-5.1c0-3.2-2.2-4.9-5.8-4.9c-1.9,0-3,0.2-3.6,0.3V50.5z" />
    <path class="st2" d="M89.9,34.9v35.2h-8V34.9H89.9z" />
    <path class="st2" d="M102,70.1L90.7,34.9h8.7l4.3,14.9c1.2,4.2,2.3,8.2,3.1,12.6h0.2c0.9-4.2,2-8.4,3.2-12.4l4.5-15h8.5l-11.8,35.2
		L102,70.1L102,70.1z" />
    <path class="st2" d="M129.1,61l-2.5,9h-8.2l10.7-35.2h10.4L150.4,70h-8.6l-2.7-9H129.1z M138,55.1l-2.2-7.5
		c-0.6-2.1-1.3-4.7-1.8-6.8l0,0c-0.5,2.1-1,4.7-1.6,6.8l-2.1,7.5H138z" />
    <path class="st2" d="M152.3,61.9c2.1,1.1,5.4,2.2,8.8,2.2c3.7,0,5.6-1.5,5.6-3.8c0-2.2-1.7-3.4-5.9-5c-5.8-2-9.7-5.3-9.7-10.4
		c0-6,5-10.6,13.3-10.6c4,0,6.9,0.8,9,1.8l-1.8,6.4c-1.4-0.7-3.9-1.7-7.4-1.7s-5.1,1.6-5.1,3.4c0,2.2,2,3.2,6.5,5
		c6.2,2.3,9.1,5.5,9.1,10.5c0,5.9-4.5,10.9-14.2,10.9c-4,0-8-1-10-2.1L152.3,61.9z" />
  </g>
  <rect x="2.7" y="32" class="st2" width="19.7" height="19.7" />
  <rect x="22.4" y="51.7" class="st2" width="19.7" height="19.7" />
</svg>